<svg xmlns="http://www.w3.org/2000/svg" xmlns:xlink="http://www.w3.org/1999/xlink" width="466.665" height="100.406" viewBox="0 0 466.665 100.406">
  <defs>
    <filter id="Path_2" x="366.26" y="0" width="100.406" height="100.406" filterUnits="userSpaceOnUse">
      <feOffset dy="3" input="SourceAlpha"/>
      <feGaussianBlur stdDeviation="3" result="blur"/>
      <feFlood flood-opacity="0.161"/>
      <feComposite operator="in" in2="blur"/>
      <feComposite in="SourceGraphic"/>
    </filter>
  </defs>
  <g id="Group_17" data-name="Group 17" transform="translate(-960 -231.976)">
    <g id="baseline-extension-24px" transform="translate(1329.899 293.758) rotate(-60)" opacity="0.585">
      <path id="Path_1" data-name="Path 1" d="M0,0H68.943V68.943H0Z" fill="none"/>
      <g transform="matrix(0.5, 0.87, -0.87, 0.5, -131.44, -351.23)" filter="url(#Path_2)">
        <path id="Path_2-2" data-name="Path 2" d="M53.144,28.726H48.835V17.236a5.762,5.762,0,0,0-5.745-5.745H31.6V7.182a7.182,7.182,0,1,0-14.363,0V11.49H5.745A5.738,5.738,0,0,0,.029,17.236V28.152h4.28a7.756,7.756,0,1,1,0,15.512H0V54.58a5.762,5.762,0,0,0,5.745,5.745H16.661V56.016a7.756,7.756,0,0,1,15.512,0v4.309H43.089a5.762,5.762,0,0,0,5.745-5.745V43.089h4.309a7.182,7.182,0,0,0,0-14.363Z" transform="translate(375.26 58.24) rotate(-60)" fill="#fff"/>
      </g>
    </g>
    <text id="CollegeMatch" transform="translate(960 314.191)" fill="#fff" font-size="54" font-family="Montserrat-Medium, Montserrat" font-weight="500" letter-spacing="0.048em"><tspan x="0" y="0">CollegeMatch</tspan></text>
  </g>
</svg>
