<svg xmlns="http://www.w3.org/2000/svg" xmlns:xlink="http://www.w3.org/1999/xlink" width="64.79" height="64.79" viewBox="0 0 64.79 64.79">
  <defs>
    <filter id="close-circle-outline" x="0" y="0" width="64.79" height="64.79" filterUnits="userSpaceOnUse">
      <feOffset dy="3" input="SourceAlpha"/>
      <feGaussianBlur stdDeviation="3" result="blur"/>
      <feFlood flood-opacity="0.161"/>
      <feComposite operator="in" in2="blur"/>
      <feComposite in="SourceGraphic"/>
    </filter>
  </defs>
  <g transform="matrix(1, 0, 0, 1, 0, 0)" filter="url(#close-circle-outline)">
    <path id="close-circle-outline-2" data-name="close-circle-outline" d="M25.395,44.111A18.716,18.716,0,1,1,44.111,25.395,18.741,18.741,0,0,1,25.395,44.111M25.395,2A23.395,23.395,0,1,0,48.79,25.395,23.374,23.374,0,0,0,25.395,2m6.059,14.037L25.395,22.1l-6.059-6.059-3.3,3.3L22.1,25.395l-6.059,6.059,3.3,3.3,6.059-6.059,6.059,6.059,3.3-3.3-6.059-6.059,6.059-6.059Z" transform="translate(7 4)" fill="#fff"/>
  </g>
</svg>
