<svg xmlns="http://www.w3.org/2000/svg" width="1045" height="257" viewBox="0 0 1045 257">
  <g id="Group_72" data-name="Group 72" transform="translate(-692 -403)">
    <path id="arrow-right-circle" d="M78.816,41.573c0,21.856-17.2,39.573-38.408,39.573S2,63.429,2,41.573,19.2,2,40.408,2,78.816,19.717,78.816,41.573M17.363,45.53H48.09L34.647,59.381,40.1,65,62.838,41.573,40.1,18.146l-5.454,5.619L48.09,37.616H17.363Z" transform="translate(921 490.655)" fill="#fff"/>
    <path id="arrow-right-circle-2" data-name="arrow-right-circle" d="M78.82,41.575c0,21.857-17.2,39.575-38.41,39.575S2,63.432,2,41.575,19.2,2,40.41,2,78.82,19.718,78.82,41.575M17.364,45.532H48.092L34.648,59.384,40.1,65,62.841,41.575,40.1,18.147l-5.454,5.62L48.092,37.617H17.364Z" transform="translate(1335 490.655)" fill="#fff"/>
    <path id="cogs" d="M106.121,127.645a18.713,18.713,0,1,0-18.713-18.713,18.743,18.743,0,0,0,18.713,18.713m39.717-13.519,11.3,8.86a2.682,2.682,0,0,1,.611,3.437l-10.693,18.484a2.672,2.672,0,0,1-3.284,1.146l-13.29-5.347a40.963,40.963,0,0,1-9.013,5.27l-2.062,14.13a2.634,2.634,0,0,1-2.6,2.291H95.428a2.711,2.711,0,0,1-2.673-2.291l-1.986-14.13a39.276,39.276,0,0,1-9.013-5.27L68.39,146.052a2.605,2.605,0,0,1-3.208-1.146L54.488,126.423a2.682,2.682,0,0,1,.611-3.437l11.3-8.86-.382-5.194.382-5.27L55.1,94.878a2.7,2.7,0,0,1-.611-3.437L65.182,72.957a2.56,2.56,0,0,1,3.208-1.222l13.366,5.423a36.7,36.7,0,0,1,9.013-5.27l1.986-14.207a2.715,2.715,0,0,1,2.673-2.215h21.386a2.634,2.634,0,0,1,2.6,2.215l2.062,14.207a38.163,38.163,0,0,1,9.013,5.27l13.29-5.423a2.625,2.625,0,0,1,3.284,1.222l10.693,18.484a2.7,2.7,0,0,1-.611,3.437l-11.3,8.784.382,5.27-.382,5.194M35.775,48.363A12.03,12.03,0,1,0,23.707,36.371,11.963,11.963,0,0,0,35.775,48.363m25.511-8.631L68.7,45.384a1.822,1.822,0,0,1,.229,2.215L62.05,59.514a1.633,1.633,0,0,1-2.062.764l-8.555-3.437L45.781,60.2,44.33,69.291a1.718,1.718,0,0,1-1.68,1.451H28.9a1.738,1.738,0,0,1-1.757-1.451L25.922,60.2l-5.8-3.361L11.41,60.278a1.6,1.6,0,0,1-1.986-.764L2.55,47.6a1.746,1.746,0,0,1,.382-2.215l7.256-5.652-.229-3.361.229-3.361L2.932,27.358a1.746,1.746,0,0,1-.382-2.215L9.424,13.228a1.6,1.6,0,0,1,1.986-.764L20.041,15.9l5.881-3.361,1.222-9.089A1.738,1.738,0,0,1,28.9,2H42.65a1.718,1.718,0,0,1,1.68,1.451l1.451,9.089L51.433,15.9l8.555-3.437a1.633,1.633,0,0,1,2.062.764l6.874,11.915a1.822,1.822,0,0,1-.229,2.215L61.286,33.01l.229,3.361Z" transform="translate(1092.692 458)" fill="#fff"/>
    <path id="account-question" d="M83.806,31.6A27.6,27.6,0,1,1,56.2,4a27.6,27.6,0,0,1,27.6,27.6m27.6,69.005v13.8H1v-13.8c0-15.25,24.7-27.6,55.2-27.6s55.2,12.352,55.2,27.6M135.56,76.455V86.806H125.209V76.455H135.56m-13.8-34.5H111.408V38.5a20.7,20.7,0,0,1,41.4,0,20.179,20.179,0,0,1-8.9,16.63l-2.07,1.311a14.2,14.2,0,0,0-6.279,11.731v1.38H125.209v-1.38a24.366,24.366,0,0,1,10.972-20.357l2-1.311a9.557,9.557,0,0,0,4.278-8,10.351,10.351,0,0,0-20.7,0Z" transform="translate(691 472)" fill="#fff"/>
    <g id="school" transform="translate(1480 403)">
      <path id="Path_17" data-name="Path 17" d="M125.02,412a5.02,5.02,0,1,0,5.02,5.02A5.024,5.024,0,0,0,125.02,412Z" transform="translate(-59.766 -205.195)" fill="#fff"/>
      <path id="Path_18" data-name="Path 18" d="M377.02,422.039a5.02,5.02,0,1,0-5.02-5.02A5.025,5.025,0,0,0,377.02,422.039Z" transform="translate(-185.273 -205.195)" fill="#fff"/>
      <path id="Path_19" data-name="Path 19" d="M251.98,226.883h-5.02V116.453h5.02a5.02,5.02,0,0,0,4.661-6.884l-20.078-50.2a5.02,5.02,0,0,0-4.661-3.155H161.957A37.742,37.742,0,0,0,133.52,36.473V30.117h25.1a5.02,5.02,0,0,0,5.02-5.02V5.02A5.02,5.02,0,0,0,158.617,0H128.5a5.02,5.02,0,0,0-5.02,5.02V36.473A37.743,37.743,0,0,0,95.043,56.219H25.1a5.02,5.02,0,0,0-4.661,3.155L.359,109.569a5.02,5.02,0,0,0,4.661,6.884h5.02v110.43H5.02A5.02,5.02,0,0,0,0,231.9V251.98A5.02,5.02,0,0,0,5.02,257H251.98a5.02,5.02,0,0,0,5.02-5.02V231.9A5.02,5.02,0,0,0,251.98,226.883ZM133.52,10.039H153.6V20.078H133.52Zm111.047,96.375H187.782L167.13,66.258H228.5ZM28.5,66.258H89.871L69.218,106.414H12.434Zm44.789,180.7H10.039V236.922H73.285Zm100.391,0H83.324V236.922h90.352ZM93.363,226.883v-50.2H123.48v50.2Zm40.156,0v-50.2h30.117v50.2Zm35.137-60.234H88.344a5.02,5.02,0,0,0-5.02,5.02v55.215H20.078V216.844h25.1a5.02,5.02,0,0,0,0-10.039h-25.1V116.453h52.2a5.019,5.019,0,0,0,4.464-2.724L103.7,61.311a27.884,27.884,0,0,1,49.594,0l26.958,52.418a5.019,5.019,0,0,0,4.464,2.724h52.2v90.352h-25.1a5.02,5.02,0,0,0,0,10.039h25.1v10.039H173.676V171.668A5.02,5.02,0,0,0,168.656,166.648Zm78.3,80.313H183.715V236.922h63.246Z" fill="#fff"/>
      <path id="Path_20" data-name="Path 20" d="M387.02,282.117h25.1a5.02,5.02,0,0,0,5.02-5.02V257.02a5.02,5.02,0,0,0-5.02-5.02h-25.1a5.02,5.02,0,0,0-5.02,5.02V277.1A5.02,5.02,0,0,0,387.02,282.117Zm5.02-20.078H407.1v10.039H392.039Z" transform="translate(-190.254 -125.508)" fill="#fff"/>
      <path id="Path_21" data-name="Path 21" d="M312.156,277.1V257.02a5.02,5.02,0,0,0-5.02-5.02H277.02a5.02,5.02,0,0,0-5.02,5.02V277.1a5.02,5.02,0,0,0,5.02,5.02h30.117A5.019,5.019,0,0,0,312.156,277.1Zm-10.039-5.02H282.039V262.039h20.078Z" transform="translate(-135.469 -125.508)" fill="#fff"/>
      <path id="Path_22" data-name="Path 22" d="M195.137,252H165.02a5.02,5.02,0,0,0-5.02,5.02V277.1a5.02,5.02,0,0,0,5.02,5.02h30.117a5.02,5.02,0,0,0,5.02-5.02V257.02A5.02,5.02,0,0,0,195.137,252Zm-5.02,20.078H170.039V262.039h20.078Z" transform="translate(-79.688 -125.508)" fill="#fff"/>
      <path id="Path_23" data-name="Path 23" d="M65.02,282.117h25.1a5.02,5.02,0,0,0,5.02-5.02V257.02a5.02,5.02,0,0,0-5.02-5.02H65.02A5.02,5.02,0,0,0,60,257.02V277.1A5.02,5.02,0,0,0,65.02,282.117Zm5.02-20.078H85.1v10.039H70.039Z" transform="translate(-29.883 -125.508)" fill="#fff"/>
      <path id="Path_24" data-name="Path 24" d="M387.02,362.117h25.1a5.02,5.02,0,0,0,5.02-5.02V337.02a5.02,5.02,0,0,0-5.02-5.02h-25.1a5.02,5.02,0,0,0-5.02,5.02V357.1A5.02,5.02,0,0,0,387.02,362.117Zm5.02-20.078H407.1v10.039H392.039Z" transform="translate(-190.254 -165.352)" fill="#fff"/>
      <path id="Path_25" data-name="Path 25" d="M95.137,357.1V337.02a5.02,5.02,0,0,0-5.02-5.02H65.02A5.02,5.02,0,0,0,60,337.02V357.1a5.02,5.02,0,0,0,5.02,5.02h25.1A5.019,5.019,0,0,0,95.137,357.1ZM85.1,352.078H70.039V342.039H85.1Z" transform="translate(-29.883 -165.352)" fill="#fff"/>
      <path id="Path_26" data-name="Path 26" d="M65.154,171.718a5.015,5.015,0,0,0,6.525-2.8l4.016-10.039a5.02,5.02,0,0,0-9.321-3.729l-4.016,10.039A5.02,5.02,0,0,0,65.154,171.718Z" transform="translate(-30.877 -75.701)" fill="#fff"/>
      <path id="Path_27" data-name="Path 27" d="M111.154,171.718a5.015,5.015,0,0,0,6.525-2.8l4.016-10.039a5.02,5.02,0,0,0-9.321-3.729l-4.016,10.039A5.02,5.02,0,0,0,111.154,171.718Z" transform="translate(-53.788 -75.701)" fill="#fff"/>
      <path id="Path_28" data-name="Path 28" d="M426.373,168.922a5.02,5.02,0,0,0,9.321-3.729l-4.016-10.039a5.02,5.02,0,1,0-9.321,3.729Z" transform="translate(-210.174 -75.702)" fill="#fff"/>
      <path id="Path_29" data-name="Path 29" d="M380.373,168.922a5.02,5.02,0,0,0,9.321-3.729l-4.016-10.039a5.02,5.02,0,1,0-9.321,3.729Z" transform="translate(-187.264 -75.702)" fill="#fff"/>
      <path id="Path_30" data-name="Path 30" d="M256.2,161.1a25.1,25.1,0,1,0-25.1,25.1A25.126,25.126,0,0,0,256.2,161.1Zm-25.1-15.059a14.963,14.963,0,0,1,6.326,1.4l-6.444,6.444-6.37-6.37A14.965,14.965,0,0,1,231.1,146.039Zm0,30.117a15.055,15.055,0,0,1-13.587-21.547l9.92,9.92a5.019,5.019,0,0,0,7.1,0l10.077-10.077a15.052,15.052,0,0,1-13.509,21.7Z" transform="translate(-102.598 -67.734)" fill="#fff"/>
      <circle id="Ellipse_5" data-name="Ellipse 5" cx="5.02" cy="5.02" r="5.02" transform="translate(103.402 199.275)" fill="#fff"/>
      <circle id="Ellipse_6" data-name="Ellipse 6" cx="5.02" cy="5.02" r="5.02" transform="translate(143.559 199.275)" fill="#fff"/>
    </g>
  </g>
</svg>
